# xmcd
#
# Track frame offsets: 
#        150
#        17703
#        38003
#        58651
#        82238
#        104598
#        123873
#        142745
#        163055
#        184167
#        205742
#        224772
#        240438
#        260473
#        280108
#        300199
#
# Disc length: 4293 seconds
#
# Revision: 0
# Processed by: cddbd v1.5PL3 Copyright (c) Steve Scherf et al.
# Submitted via: ExactAudioCopy v0.95a3
#
DISCID=dd10c310
DTITLE=文章 - 音乐文章II
DYEAR=2003
DGENRE=Pop
TTITLE0=别在我心灰时说爱我
TTITLE1=新不了情
TTITLE2=不管有多苦
TTITLE3=一次爱一次伤
TTITLE4=黑夜白天
TTITLE5=情奔
TTITLE6=想着你的感觉
TTITLE7=爱可有天荒地老
TTITLE8=凯旋
TTITLE9=风雨给我温暖给你
TTITLE10=向你飞翔
TTITLE11=开始就有希望
TTITLE12=携手圆梦
TTITLE13=天涯共此时
TTITLE14=亮了
TTITLE15=我是风
EXTD=
EXTT0=
EXTT1=
EXTT2=
EXTT3=
EXTT4=
EXTT5=
EXTT6=
EXTT7=
EXTT8=
EXTT9=
EXTT10=
EXTT11=
EXTT12=
EXTT13=
EXTT14=
EXTT15=
PLAYORDER=
